<svg width="1024" height="1024" viewBox="0 0 1024 1024" fill="none" xmlns="http://www.w3.org/2000/svg">
  <rect width="1024" height="1024" fill="#4F46E5"/>
  <!-- Scaled Lucide Wallet Icon -->
  <g transform="translate(112, 112) scale(33.3)">
    <path d="M19 7V4a1 1 0 0 0-1-1H5a2 2 0 0 1 0-4h14a2 2 0 0 1 2 2v12a2 2 0 0 1-2 2H5a2 2 0 0 1-2-2V5" stroke="white" stroke-width="2" stroke-linecap="round" stroke-linejoin="round"/>
    <path d="M3 5v14a2 2 0 0 0 2 2h16v-5" stroke="white" stroke-width="2" stroke-linecap="round" stroke-linejoin="round"/>
    <path d="M18 12a2 2 0 0 0 0 4h4v-4Z" fill="white" stroke="white" stroke-width="2" stroke-linecap="round" stroke-linejoin="round"/>
  </g>
</svg>