<svg width="2732" height="2732" viewBox="0 0 2732 2732" fill="none" xmlns="http://www.w3.org/2000/svg">
  <rect width="2732" height="2732" fill="#F8FAFC"/>
  
  <g transform="translate(1366, 1100)">
    <!-- Icon Container -->
    <rect x="-150" y="-150" width="300" height="300" rx="60" fill="#4F46E5"/>
    
    <!-- Icon -->
    <g transform="translate(-100, -100) scale(8.3)">
        <path d="M19 7V4a1 1 0 0 0-1-1H5a2 2 0 0 1 0-4h14a2 2 0 0 1 2 2v12a2 2 0 0 1-2 2H5a2 2 0 0 1-2-2V5" stroke="white" stroke-width="2" stroke-linecap="round" stroke-linejoin="round"/>
        <path d="M3 5v14a2 2 0 0 0 2 2h16v-5" stroke="white" stroke-width="2" stroke-linecap="round" stroke-linejoin="round"/>
        <path d="M18 12a2 2 0 0 0 0 4h4v-4Z" fill="white" stroke="white" stroke-width="2" stroke-linecap="round" stroke-linejoin="round"/>
    </g>
  </g>

  <!-- Text -->
  <text x="1366" y="1500" font-family="Inter, sans-serif" font-weight="bold" font-size="120" fill="#0F172A" text-anchor="middle">
    Snapshot Budgeter
  </text>
  <text x="1366" y="1620" font-family="Inter, sans-serif" font-weight="400" font-size="60" fill="#64748B" text-anchor="middle">
    Offline & Secure
  </text>
</svg>